<svg width="435" height="197" viewBox="0 0 435 197" fill="none" xmlns="http://www.w3.org/2000/svg">
<g clip-path="url(#clip0_666_2844)">
<mask id="mask0_666_2844" style="mask-type:luminance" maskUnits="userSpaceOnUse" x="-5" y="21" width="82" height="106">
<path d="M-4.35107 21.8542H76.6876V126.583H-4.35107V21.8542Z" fill="white"/>
</mask>
<g mask="url(#mask0_666_2844)">
<path d="M60.9705 22.6741C63.1276 22.6741 64.9871 23.4179 66.4748 24.9055C67.9624 26.3188 68.7062 28.1783 68.7062 30.5585V87.6835C68.7062 98.1713 65.4334 105.907 58.8879 110.891C52.4167 115.949 44.2347 118.477 34.342 118.477C31.7386 118.477 28.1683 118.031 23.631 117.139C19.1681 116.32 15.9697 115.502 14.1102 114.61C9.94482 112.824 7.86214 110.333 7.86214 107.172C7.86214 106.576 8.01091 105.87 8.30843 105.089C8.79191 103.192 9.6473 101.742 10.8374 100.775C12.1019 99.7705 13.5151 99.2871 15.0028 99.2871C15.7838 99.2871 16.5648 99.4358 17.383 99.7334C17.6805 99.8077 19.7632 100.626 23.631 102.114C27.5732 103.601 31.1436 104.345 34.342 104.345C40.6644 104.345 45.3876 103.043 48.4744 100.477C51.6357 97.9854 53.2349 94.4151 53.2349 89.7662V83.6669C51.3381 86.2703 48.4744 88.6505 44.6066 90.8076C40.8132 92.9646 36.7594 94.0804 32.408 94.0804C26.4575 94.0804 20.9905 92.5555 16.0441 89.4687C11.0606 86.4191 7.15552 82.1793 4.29183 76.8238C1.50252 71.394 0.126465 65.2203 0.126465 58.3772C0.126465 51.5341 1.50252 45.3977 4.29183 39.9306C7.04394 34.5008 10.8746 30.261 15.7466 27.2858C20.5814 24.2361 26.0112 22.6741 31.9618 22.6741C36.3131 22.6741 40.3669 23.5667 44.1603 25.3518C47.9166 27.137 50.929 29.3313 53.2349 31.8974V30.5585C53.2349 28.2899 53.9043 26.3932 55.3175 24.9055C56.8052 23.4179 58.6647 22.6741 60.9705 22.6741ZM34.342 79.9479C40.0693 79.9479 44.7554 77.9396 48.3257 73.8486C51.9704 69.7948 53.8299 64.6253 53.8299 58.3772C53.8299 52.2408 51.9704 47.1456 48.3257 43.0546C44.7554 38.8893 40.0693 36.8066 34.342 36.8066C28.5774 36.8066 23.9285 38.8893 20.3582 43.0546C16.7879 47.1456 15.0028 52.2408 15.0028 58.3772C15.0028 64.6253 16.7879 69.7948 20.3582 73.8486C23.9285 77.9396 28.5774 79.9479 34.342 79.9479Z" fill="white"/>
</g>
<path d="M121.032 22.6741C123.598 22.6741 125.793 23.4179 127.578 24.9055C129.363 26.3188 130.256 27.9924 130.256 29.9635C130.256 32.6412 129.549 34.6867 128.173 36.0628C126.76 37.3645 125.123 37.9967 123.264 37.9967C121.962 37.9967 120.512 37.6992 118.95 37.1041C118.652 37.0297 118.057 36.881 117.164 36.6578C116.272 36.3603 115.305 36.2115 114.338 36.2115C112.032 36.2115 109.875 36.9182 107.792 38.2942C105.784 39.5959 104.11 41.6786 102.734 44.5423C101.433 47.3316 100.8 50.6415 100.8 54.5094V84.857C100.8 87.1629 100.057 89.0224 98.569 90.51C97.0814 91.9977 95.2218 92.7415 93.0648 92.7415C90.8705 92.7415 89.0482 91.9977 87.5605 90.51C86.0729 89.0224 85.3291 87.1629 85.3291 84.857V31.7486C85.3291 29.5916 86.0729 27.732 87.5605 26.2444C89.0482 24.7568 90.8705 24.013 93.0648 24.013C95.2218 24.013 97.0814 24.7568 98.569 26.2444C100.057 27.732 100.8 29.5916 100.8 31.7486V33.5338C102.772 29.9635 105.598 27.2858 109.28 25.5006C112.925 23.6411 116.867 22.6741 121.032 22.6741Z" fill="white"/>
<path d="M196.731 22.6741C199 22.6741 200.822 23.4179 202.236 24.9055C203.723 26.3188 204.467 28.1783 204.467 30.5585V84.857C204.467 87.1629 203.723 89.0224 202.236 90.51C200.822 91.9977 199 92.7415 196.731 92.7415C194.537 92.7415 192.715 92.072 191.227 90.6588C189.814 89.1712 189.07 87.3116 188.996 85.0058C186.913 87.4976 184.012 89.6175 180.367 91.4026C176.685 93.1878 172.855 94.0804 168.913 94.0804C162.962 94.0804 157.532 92.5555 152.697 89.4687C147.937 86.4191 144.144 82.1793 141.391 76.8238C138.602 71.394 137.226 65.2203 137.226 58.3772C137.226 51.5341 138.602 45.3977 141.391 39.9306C144.144 34.5008 147.863 30.261 152.549 27.2858C157.309 24.2361 162.553 22.6741 168.318 22.6741C172.483 22.6741 176.351 23.4179 179.921 24.9055C183.491 26.3932 186.504 28.3271 188.996 30.7073V30.5585C188.996 28.2899 189.739 26.3932 191.227 24.9055C192.715 23.4179 194.537 22.6741 196.731 22.6741ZM170.847 79.9479C176.388 79.9479 180.888 77.9396 184.384 73.8486C187.954 69.7948 189.739 64.6253 189.739 58.3772C189.739 52.2408 187.954 47.1456 184.384 43.0546C180.888 38.8893 176.388 36.8066 170.847 36.8066C165.268 36.8066 160.768 38.8893 157.309 43.0546C153.813 47.1456 152.102 52.2408 152.102 58.3772C152.102 64.6253 153.813 69.7948 157.309 73.8486C160.768 77.9396 165.268 79.9479 170.847 79.9479Z" fill="white"/>
<path d="M273.955 24.1617C276.038 24.1617 277.748 24.8312 279.162 26.0957C280.538 27.3973 281.244 29.0337 281.244 31.0048C281.244 32.1206 280.872 33.385 280.203 34.8727L256.103 87.8323C255.508 89.3199 254.616 90.51 253.426 91.4026C252.31 92.2208 251.045 92.6671 249.558 92.7415L248.368 92.8903C246.954 92.8903 245.616 92.444 244.351 91.5514C243.161 90.6588 242.194 89.4315 241.525 87.8323L217.574 34.8727C216.979 33.4966 216.681 32.1577 216.681 30.8561C216.681 29.0709 217.351 27.5089 218.764 26.0957C220.251 24.7196 222.074 24.013 224.268 24.013C225.83 24.013 227.318 24.4593 228.731 25.3518C230.107 26.17 231.148 27.3601 231.855 28.9221L249.558 69.5345L267.112 28.9221C267.781 27.3601 268.748 26.17 269.938 25.3518C271.203 24.4593 272.542 24.0873 273.955 24.1617Z" fill="white"/>
<path d="M307.935 84.857C307.935 87.1629 307.191 89.0224 305.703 90.51C304.216 91.9977 302.356 92.7415 300.199 92.7415C297.893 92.7415 296.034 91.9977 294.546 90.51C293.133 89.0224 292.464 87.1629 292.464 84.857V31.7486C292.464 29.5916 293.133 27.732 294.546 26.2444C296.034 24.7568 297.893 24.013 300.199 24.013C302.356 24.013 304.216 24.7568 305.703 26.2444C307.191 27.732 307.935 29.5916 307.935 31.7486V84.857ZM300.199 15.6822C297.224 15.6822 295.141 15.236 293.951 14.3434C292.761 13.3764 292.166 11.6285 292.166 9.13667V6.75646C292.166 4.37625 292.798 2.73986 294.1 1.84728C295.364 0.880315 297.41 0.35965 300.199 0.35965C303.249 0.35965 305.406 0.880315 306.596 1.84728C307.786 2.73986 308.381 4.37625 308.381 6.75646V9.13667C308.381 11.6285 307.712 13.3764 306.447 14.3434C305.257 15.236 303.174 15.6822 300.199 15.6822Z" fill="white"/>
<path d="M356.854 78.1627C358.044 78.1627 359.123 78.7578 360.127 79.9479C361.094 81.138 361.615 82.7 361.615 84.5595C361.615 86.8653 360.313 88.7993 357.747 90.3613C355.255 91.9605 352.428 92.7415 349.267 92.7415C343.986 92.7415 339.523 91.6258 335.879 89.3199C332.197 87.0513 330.374 82.2537 330.374 74.8899V39.3356H324.424C322.416 39.3356 320.742 38.7033 319.366 37.4016C317.953 36.0256 317.283 34.2776 317.283 32.1949C317.283 30.2238 317.953 28.5874 319.366 27.2857C320.742 25.9097 322.416 25.2031 324.424 25.2031H330.374V17.0211C330.374 14.864 331.118 13.0045 332.606 11.5169C334.093 9.95486 335.953 9.13666 338.259 9.13666C340.341 9.13666 342.127 9.95486 343.614 11.5169C345.102 13.0045 345.846 14.864 345.846 17.0211V25.2031H354.92C357.003 25.2031 358.677 25.9097 359.978 27.2857C361.354 28.699 362.061 30.4098 362.061 32.4925C362.061 34.5007 361.354 36.1372 359.978 37.4016C358.677 38.7033 357.003 39.3356 354.92 39.3356H345.846V74.2949C345.846 76.08 346.292 77.3817 347.185 78.1627C348.152 78.9809 349.453 79.3528 351.052 79.3528C351.722 79.3528 352.689 79.204 353.879 78.9065C354.957 78.423 355.962 78.1627 356.854 78.1627Z" fill="white"/>
<path d="M427.259 24.013C429.527 24.013 431.35 24.7568 432.763 26.2444C434.25 27.732 434.994 29.5916 434.994 31.7486V86.4934C434.994 97.5763 431.945 105.684 425.92 110.742C419.969 115.874 411.973 118.477 401.969 118.477C399.068 118.477 396.093 118.217 393.043 117.734C389.956 117.213 387.465 116.618 385.605 115.949C381.44 114.052 379.357 111.523 379.357 108.362C379.357 107.767 379.431 107.097 379.654 106.428C380.25 104.531 381.142 103.081 382.332 102.114C383.597 101.109 384.936 100.626 386.349 100.626C387.241 100.626 388.06 100.7 388.878 100.923C389.473 101.221 390.514 101.667 392.002 102.262C393.489 102.857 395.051 103.341 396.762 103.75C398.436 104.122 400.184 104.345 401.969 104.345C407.994 104.345 412.457 103.006 415.358 100.328C418.221 97.7251 419.672 93.2622 419.672 86.9397V85.6009C415.209 91.2539 408.254 94.0804 398.845 94.0804C394.382 94.0804 390.403 93.039 386.944 90.9563C383.559 88.7993 380.919 85.8612 379.059 82.1793C377.163 78.4231 376.233 74.1461 376.233 69.3857V31.7486C376.233 29.5916 376.977 27.732 378.464 26.2444C379.952 24.7568 381.774 24.013 383.969 24.013C386.126 24.013 387.985 24.7568 389.473 26.2444C390.96 27.732 391.704 29.5916 391.704 31.7486V64.774C391.704 70.1295 392.82 73.9973 395.126 76.3776C397.506 78.7578 400.965 79.9479 405.539 79.9479C410.002 79.9479 413.424 78.6834 415.804 76.08C418.258 73.4023 419.523 69.646 419.523 64.774V31.7486C419.523 29.5916 420.267 27.732 421.754 26.2444C423.242 24.7568 425.064 24.013 427.259 24.013Z" fill="white"/>
<path d="M133.006 108.005C135.089 108.005 136.762 108.711 138.064 110.087C139.44 111.5 140.147 113.286 140.147 115.443V166.617C140.147 177.105 137.32 184.766 131.667 189.527C126.089 194.287 118.613 196.667 109.204 196.667C106.415 196.667 103.588 196.407 100.725 195.923C97.9353 195.514 95.6667 194.957 93.8815 194.287C89.9021 192.576 87.931 190.27 87.931 187.295C87.931 186.7 88.0798 186.031 88.3773 185.361C88.7492 183.576 89.5674 182.163 90.7575 181.196C91.9476 180.303 93.2121 179.857 94.6253 179.857C95.4063 179.857 96.1501 180.006 96.8568 180.303C97.4518 180.489 98.4188 180.898 99.832 181.493C101.208 182.089 102.696 182.535 104.295 182.832C105.857 183.204 107.493 183.427 109.204 183.427C114.857 183.427 119.022 182.163 121.7 179.708C124.452 177.328 125.866 173.163 125.866 167.212V165.873C121.7 171.154 115.155 173.758 106.229 173.758C102.063 173.758 98.3444 172.754 95.0716 170.783C91.8732 168.811 89.4186 166.096 87.6335 162.601C85.9227 159.142 85.1045 155.125 85.1045 150.551V115.443C85.1045 113.286 85.7367 111.5 87.0384 110.087C88.4145 108.711 90.1624 108.005 92.2451 108.005C94.3278 108.005 96.0386 108.711 97.4518 110.087C98.8279 111.5 99.5345 113.286 99.5345 115.443V146.237C99.5345 151.295 100.613 154.976 102.807 157.245C105.076 159.439 108.349 160.518 112.626 160.518C116.791 160.518 119.989 159.291 122.295 156.799C124.564 154.344 125.717 150.811 125.717 146.237V115.443C125.717 113.286 126.386 111.5 127.799 110.087C129.176 108.711 130.924 108.005 133.006 108.005Z" fill="white"/>
<path d="M217.979 140.286C217.979 146.757 216.491 152.559 213.516 157.691C210.615 162.749 206.673 166.729 201.615 169.592C196.631 172.382 191.127 173.758 185.102 173.758C178.929 173.758 173.387 172.382 168.441 169.592C163.457 166.729 159.515 162.749 156.54 157.691C153.639 152.559 152.226 146.757 152.226 140.286C152.226 133.964 153.639 128.236 156.54 123.178C159.515 118.046 163.457 114.029 168.441 111.129C173.387 108.265 178.929 106.814 185.102 106.814C191.127 106.814 196.631 108.265 201.615 111.129C206.673 114.029 210.615 118.046 213.516 123.178C216.491 128.236 217.979 133.964 217.979 140.286ZM203.4 140.286C203.4 136.418 202.545 132.96 200.871 129.873C199.272 126.711 197.078 124.294 194.326 122.583C191.536 120.91 188.449 120.054 185.102 120.054C181.718 120.054 178.631 120.91 175.879 122.583C173.09 124.294 170.858 126.711 169.185 129.873C167.585 132.96 166.804 136.418 166.804 140.286C166.804 144.265 167.585 147.799 169.185 150.848C170.858 153.935 173.09 156.315 175.879 157.989C178.631 159.7 181.718 160.518 185.102 160.518C188.449 160.518 191.536 159.7 194.326 157.989C197.078 156.315 199.272 153.935 200.871 150.848C202.545 147.799 203.4 144.265 203.4 140.286Z" fill="white"/>
<path d="M283.449 106.814C285.532 106.814 287.243 107.521 288.656 108.897C290.032 110.31 290.739 112.021 290.739 114.104V167.807C290.739 177.626 287.652 184.841 281.515 189.527C275.453 194.287 267.755 196.667 258.457 196.667C256.077 196.667 252.73 196.258 248.49 195.477C244.325 194.659 241.349 193.878 239.564 193.097C235.585 191.386 233.614 189.08 233.614 186.105C233.614 185.51 233.688 184.841 233.911 184.171C234.395 182.386 235.25 180.973 236.44 180.006C237.63 179.113 238.895 178.667 240.308 178.667C241.089 178.667 241.833 178.816 242.539 179.113C242.837 179.188 244.808 179.931 248.49 181.345C252.135 182.721 255.482 183.427 258.457 183.427C264.408 183.427 268.796 182.237 271.697 179.857C274.672 177.477 276.16 174.092 276.16 169.741V163.939C274.375 166.543 271.697 168.811 268.127 170.783C264.556 172.754 260.726 173.758 256.672 173.758C251.019 173.758 245.849 172.382 241.201 169.592C236.626 166.729 233.019 162.749 230.341 157.691C227.663 152.559 226.324 146.757 226.324 140.286C226.324 133.964 227.589 128.236 230.192 123.178C232.87 118.046 236.477 114.029 241.052 111.129C245.589 108.265 250.647 106.814 256.226 106.814C260.279 106.814 264.036 107.67 267.532 109.343C271.102 111.054 273.966 113.062 276.16 115.443V114.104C276.16 112.021 276.829 110.31 278.243 108.897C279.619 107.521 281.367 106.814 283.449 106.814ZM258.457 160.518C263.813 160.518 268.164 158.658 271.548 154.865C275.007 150.997 276.755 146.162 276.755 140.286C276.755 134.559 275.007 129.724 271.548 125.856C268.164 121.988 263.813 120.054 258.457 120.054C253.102 120.054 248.713 121.988 245.366 125.856C241.982 129.724 240.308 134.559 240.308 140.286C240.308 146.162 241.982 150.997 245.366 154.865C248.713 158.658 253.102 160.518 258.457 160.518Z" fill="white"/>
<path d="M358.651 106.814C360.733 106.814 362.444 107.521 363.857 108.897C365.233 110.31 365.94 112.021 365.94 114.104V165.278C365.94 167.361 365.233 169.109 363.857 170.485C362.444 171.898 360.733 172.568 358.651 172.568C356.568 172.568 354.82 171.898 353.444 170.485C352.142 169.109 351.436 167.361 351.361 165.278C349.353 167.658 346.638 169.704 343.179 171.378C339.795 172.94 336.225 173.758 332.468 173.758C326.89 173.758 321.832 172.382 317.295 169.592C312.832 166.729 309.261 162.749 306.584 157.691C303.98 152.559 302.716 146.757 302.716 140.286C302.716 133.964 303.98 128.236 306.584 123.178C309.15 118.046 312.683 114.029 317.146 111.129C321.609 108.265 326.555 106.814 332.022 106.814C335.89 106.814 339.497 107.521 342.882 108.897C346.229 110.31 349.056 112.095 351.361 114.253V114.104C351.361 112.021 352.031 110.31 353.444 108.897C354.82 107.521 356.568 106.814 358.651 106.814ZM334.254 160.518C339.497 160.518 343.774 158.658 347.047 154.865C350.32 150.997 351.956 146.162 351.956 140.286C351.956 134.559 350.32 129.724 347.047 125.856C343.774 121.988 339.497 120.054 334.254 120.054C329.084 120.054 324.882 121.988 321.609 125.856C318.336 129.724 316.7 134.559 316.7 140.286C316.7 146.162 318.262 150.997 321.46 154.865C324.733 158.658 328.972 160.518 334.254 160.518Z" fill="white"/>
</g>
<defs>
<clipPath id="clip0_666_2844">
<rect width="435" height="197" fill="white"/>
</clipPath>
</defs>
</svg>
