<svg xmlns="http://www.w3.org/2000/svg" viewBox="0 0 600 100" preserveAspectRatio="xMidYMid slice">
  <defs>
    <filter id="goo" x="-4%" y="-20%" width="108%" height="140%">
      <feGaussianBlur in="SourceGraphic" stdDeviation="2.4"/>
      <feColorMatrix values="1 0 0 0 0  0 1 0 0 0  0 0 1 0 0  0 0 0 24 -11"/>
    </filter>
    <filter id="shade" x="-5%" y="-5%" width="110%" height="110%">
      <feGaussianBlur stdDeviation="5"/>
    </filter>
  </defs>

  <g opacity="0.22" fill="#0B1C4E" filter="url(#shade)">
    <ellipse cx="100" cy="82" rx="92" ry="7"/>
    <ellipse cx="300" cy="80" rx="120" ry="8"/>
    <ellipse cx="490" cy="82" rx="92" ry="7"/>
  </g>

  <g opacity="0.45" fill="#FFFFFF">
    <ellipse cx="120" cy="26" rx="48" ry="7"/>
    <ellipse cx="320" cy="20" rx="62" ry="7"/>
    <ellipse cx="500" cy="26" rx="48" ry="7"/>
  </g>

  <g fill="#FFFFFF" filter="url(#goo)">
    <ellipse cx="-10" cy="52" rx="26" ry="22"/>
    <ellipse cx="26" cy="40" rx="30" ry="27"/>
    <ellipse cx="68" cy="30" rx="36" ry="31"/>
    <ellipse cx="110" cy="38" rx="30" ry="27"/>
    <ellipse cx="146" cy="50" rx="24" ry="20"/>

    <ellipse cx="188" cy="46" rx="26" ry="22"/>
    <ellipse cx="224" cy="32" rx="32" ry="28"/>
    <ellipse cx="266" cy="22" rx="38" ry="33"/>
    <ellipse cx="310" cy="26" rx="36" ry="31"/>
    <ellipse cx="352" cy="38" rx="30" ry="26"/>
    <ellipse cx="388" cy="50" rx="24" ry="20"/>

    <ellipse cx="424" cy="44" rx="28" ry="24"/>
    <ellipse cx="462" cy="32" rx="34" ry="29"/>
    <ellipse cx="500" cy="40" rx="30" ry="26"/>
    <ellipse cx="540" cy="50" rx="26" ry="22"/>
    <ellipse cx="578" cy="56" rx="22" ry="18"/>

    <rect x="-14" y="48" width="170" height="16"/>
    <rect x="166" y="44" width="232" height="20"/>
    <rect x="402" y="46" width="218" height="18"/>

    <ellipse cx="42" cy="26" rx="7" ry="5"/>
    <ellipse cx="118" cy="28" rx="8" ry="6"/>
    <ellipse cx="266" cy="14" rx="10" ry="7"/>
    <ellipse cx="356" cy="22" rx="9" ry="6"/>
    <ellipse cx="470" cy="22" rx="9" ry="6"/>
  </g>

  <g opacity="0.55" fill="#FFFFFF">
    <ellipse cx="68" cy="22" rx="14" ry="4"/>
    <ellipse cx="266" cy="14" rx="22" ry="5"/>
    <ellipse cx="462" cy="22" rx="16" ry="4"/>
  </g>
</svg>
